<svg xmlns="http://www.w3.org/2000/svg" version="1.0" preserveAspectRatio="xMidYMid meet" viewBox="60.6 194 343.4 101">

<g transform="translate(0.000000,500.000000) scale(0.100000,-0.100000)" fill="#000000" stroke="none">
<path d="M3615 2955 c-26 -74 -39 -131 -44 -189 -5 -63 -11 -90 -26 -106 -10 -11 -21 -40 -24 -63 -8 -55 -23 -50 -37 12 -16 68 -55 132 -105 172 -45 36 -197 95 -210 82 -10 -10 15 -123 36 -163 43 -83 131 -143 227 -156 77 -10 79 -16 81 -222 1 -99 -1 -184 -5 -188 -17 -16 -38 20 -38 65 -1 125 -124 241 -256 241 -39 0 -161 -37 -170 -51 -3 -6 5 -13 17 -16 62 -16 207 -101 291 -170 51 -41 107 -82 125 -91 17 -8 34 -23 36 -33 3 -11 10 -19 16 -19 7 0 11 40 11 119 l0 120 33 23 c17 12 43 33 57 46 80 75 222 144 338 164 43 7 72 17 72 24 0 15 -173 74 -215 74 -100 0 -179 -65 -215 -175 -24 -76 -45 -115 -60 -115 -6 0 -10 54 -10 135 l0 134 46 52 c76 86 94 135 94 261 0 105 -5 138 -20 138 -4 0 -24 -47 -45 -105z m37 -99 c-14 -67 -38 -126 -51 -126 -6 0 -11 4 -11 10 0 19 22 117 37 165 15 45 17 48 26 28 7 -15 6 -41 -1 -77z m-376 -47 c71 -27 131 -80 160 -144 13 -27 21 -51 18 -54 -2 -3 -33 23 -68 58 -43 42 -66 59 -71 51 -5 -7 16 -35 54 -74 33 -34 61 -65 61 -69 0 -12 -52 4 -97 30 -54 31 -101 91 -119 150 -25 82 -23 84 62 52z m649 -232 l29 -15 -60 -17 c-67 -19 -182 -75 -231 -112 -40 -31 -42 -18 -9 52 26 56 46 77 96 100 42 18 133 15 175 -8z m-605 -194 c70 -37 111 -94 118 -165 l5 -53 -54 45 c-86 73 -152 118 -213 146 -31 14 -56 28 -56 30 0 11 49 23 96 23 36 1 65 -7 104 -26z"/>
<path d="M2360 2928 c-46 -31 -59 -78 -36 -131 13 -32 26 -43 81 -68 68 -31 90 -63 68 -98 -25 -39 -121 -3 -139 51 -11 37 -24 16 -24 -42 0 -60 11 -75 36 -50 7 7 25 5 56 -6 41 -14 50 -14 82 0 62 26 82 110 41 172 -8 13 -41 32 -75 45 -33 12 -65 28 -71 35 -16 19 -3 61 23 75 27 15 80 -11 97 -47 17 -39 31 -28 31 26 0 47 -1 49 -27 48 -16 -1 -46 2 -68 6 -33 6 -46 4 -75 -16z"/>
<path d="M610 2926 c0 -8 7 -16 15 -20 12 -4 15 -30 15 -146 0 -116 -3 -142 -15 -146 -8 -4 -15 -12 -15 -20 0 -11 16 -14 65 -14 51 0 65 3 65 15 0 8 -6 15 -14 15 -17 0 -26 31 -26 88 l0 43 53 -3 52 -3 0 -54 c-1 -38 -6 -57 -18 -66 -33 -24 -19 -35 48 -35 67 0 81 11 48 36 -16 11 -18 30 -18 144 0 114 2 133 18 144 33 25 19 36 -48 36 -66 0 -81 -11 -49 -35 10 -7 19 -32 22 -63 l5 -52 -58 0 -57 0 4 56 c3 39 10 59 21 66 33 18 16 28 -48 28 -49 0 -65 -3 -65 -14z"/>
<path d="M1074 2883 c-59 -211 -75 -259 -89 -269 -31 -23 -16 -34 45 -34 45 0 60 4 60 14 0 8 -7 17 -16 20 -11 4 -14 17 -12 43 3 36 5 38 39 41 32 3 37 0 43 -23 8 -30 0 -65 -15 -65 -5 0 -9 -7 -9 -15 0 -12 14 -15 70 -15 74 0 85 9 51 38 -12 11 -30 55 -46 117 -55 209 -53 205 -80 205 -21 0 -27 -8 -41 -57z m48 -102 c3 -35 -7 -47 -30 -32 -11 7 -11 16 -1 50 14 46 25 39 31 -18z"/>
<path d="M1320 2930 c0 -5 9 -14 20 -20 19 -10 20 -21 20 -150 0 -129 -1 -140 -20 -150 -37 -20 -20 -30 50 -30 72 0 87 10 53 35 -12 9 -17 28 -18 66 l0 54 37 3 c43 4 49 -4 67 -91 16 -75 51 -97 91 -57 14 14 20 33 20 65 0 51 -15 60 -25 15 -9 -41 -23 -38 -30 8 -4 20 -11 48 -16 61 -6 15 -6 27 1 36 6 7 15 28 20 45 11 39 -8 93 -38 109 -26 14 -232 15 -232 1z m194 -46 c18 -18 20 -47 6 -75 -8 -14 -21 -19 -55 -19 -45 0 -45 0 -45 36 0 19 5 44 10 55 13 23 62 26 84 3z"/>
<path d="M1660 2932 c0 -4 8 -15 18 -23 18 -16 24 -38 60 -229 18 -94 18 -95 49 -98 28 -3 31 0 40 35 6 21 23 83 37 138 33 124 44 152 62 159 32 12 11 26 -41 26 -58 0 -68 -9 -35 -31 19 -14 19 -15 -10 -123 -27 -99 -40 -135 -40 -110 0 5 -9 53 -20 107 -24 119 -24 127 -5 127 8 0 15 7 15 15 0 12 -14 15 -65 15 -36 0 -65 -3 -65 -8z"/>
<path d="M2000 2925 c0 -8 6 -15 14 -15 20 0 26 -33 26 -150 0 -117 -6 -150 -26 -150 -8 0 -14 -7 -14 -15 0 -12 19 -15 110 -15 l110 0 0 65 c0 51 -3 65 -15 65 -10 0 -15 -10 -15 -34 0 -40 -22 -66 -55 -66 -28 0 -35 16 -35 86 0 53 0 54 30 54 23 0 30 4 30 20 0 16 -7 20 -30 20 l-31 0 3 58 c3 54 4 57 31 60 34 4 56 -20 57 -60 0 -18 5 -28 15 -28 12 0 15 13 15 60 l0 60 -110 0 c-91 0 -110 -3 -110 -15z"/>
<path d="M2620 2870 c0 -53 3 -70 14 -70 8 0 15 16 19 41 3 23 13 49 21 57 30 30 41 0 44 -124 4 -128 -1 -164 -23 -164 -8 0 -15 -7 -15 -15 0 -12 14 -15 65 -15 49 0 65 3 65 14 0 8 -7 16 -15 20 -12 4 -15 30 -15 145 0 95 4 142 12 147 18 11 48 -34 48 -72 0 -24 5 -34 15 -34 12 0 15 14 15 70 l0 70 -125 0 -125 0 0 -70z"/>
<path d="M610 2465 c0 -7 8 -18 18 -24 15 -8 17 -29 20 -165 l3 -156 -25 -23 c-14 -13 -23 -27 -19 -30 8 -9 163 -9 163 -1 0 4 -11 17 -25 30 -23 22 -26 30 -23 86 l3 63 55 0 55 0 3 -57 c3 -61 -9 -98 -33 -98 -8 0 -15 -7 -15 -15 0 -12 16 -15 80 -15 83 0 102 12 60 38 -19 11 -20 23 -20 167 0 143 2 157 20 172 39 34 25 43 -60 43 -64 0 -80 -3 -80 -15 0 -8 4 -15 9 -15 26 0 41 -34 41 -91 l0 -59 -60 0 -60 0 0 60 c0 48 4 64 20 77 38 33 25 43 -55 43 -59 0 -75 -3 -75 -15z"/>
<path d="M1030 2466 c0 -8 9 -17 19 -21 27 -8 31 -32 31 -188 0 -134 -1 -139 -25 -161 -14 -13 -25 -26 -25 -30 0 -3 61 -6 135 -6 l136 0 -3 72 c-2 60 -6 73 -20 76 -15 3 -18 -4 -18 -35 0 -44 -6 -55 -37 -72 -52 -27 -73 -1 -73 90 l0 69 35 0 c28 0 35 4 35 20 0 16 -7 20 -35 20 l-35 0 0 54 c0 75 6 86 46 86 38 0 64 -29 64 -72 0 -21 5 -28 20 -28 18 0 20 7 20 70 l0 70 -135 0 c-111 0 -135 -3 -135 -14z"/>
<path d="M1390 2465 c0 -8 9 -19 20 -25 19 -10 20 -21 20 -165 0 -161 -3 -185 -26 -185 -8 0 -14 -7 -14 -15 0 -13 22 -15 140 -15 l140 0 0 65 c0 75 -20 90 -36 28 -9 -37 -11 -38 -58 -41 -27 -2 -53 1 -58 6 -13 13 -21 161 -13 246 5 62 10 76 26 81 10 4 19 13 19 21 0 11 -17 14 -80 14 -64 0 -80 -3 -80 -15z"/>
<path d="M1760 2470 c0 -5 11 -20 25 -34 24 -24 25 -29 25 -166 0 -141 -8 -180 -35 -180 -8 0 -15 -7 -15 -15 0 -12 16 -15 80 -15 83 0 102 12 60 38 -17 10 -20 23 -20 76 l0 63 58 6 c31 2 70 11 85 18 75 34 76 173 2 207 -31 14 -265 17 -265 2z m224 -56 c19 -18 21 -75 4 -92 -7 -7 -34 -12 -60 -12 l-48 0 0 54 c0 34 5 56 13 59 26 11 76 6 91 -9z"/>
<path d="M2140 2466 c0 -8 9 -17 19 -21 27 -8 31 -32 31 -183 0 -133 -8 -172 -35 -172 -8 0 -15 -7 -15 -15 0 -13 22 -15 135 -15 l135 0 0 75 c0 68 -2 75 -20 75 -17 0 -20 -7 -20 -39 0 -58 -46 -95 -90 -71 -17 9 -20 20 -20 85 l0 75 35 0 c28 0 35 4 35 20 0 16 -7 20 -35 20 l-36 0 3 68 3 67 37 3 c42 4 68 -23 68 -70 0 -21 5 -28 20 -28 18 0 20 7 20 70 l0 70 -135 0 c-111 0 -135 -3 -135 -14z"/>
<path d="M2500 2465 c0 -8 9 -19 20 -25 19 -10 20 -21 20 -170 0 -149 -1 -161 -20 -172 -42 -26 -23 -38 60 -38 64 0 80 3 80 15 0 8 -6 15 -13 15 -21 0 -37 45 -37 100 l0 50 49 0 c47 0 50 -2 60 -32 5 -18 13 -53 16 -77 8 -49 34 -81 68 -81 37 0 60 34 65 95 4 46 2 55 -12 55 -9 0 -16 -8 -16 -19 0 -26 -10 -51 -21 -51 -4 0 -11 17 -14 38 -3 20 -13 52 -21 70 -13 31 -13 35 6 59 14 18 20 41 20 75 0 41 -5 54 -29 79 -29 29 -30 29 -155 29 -104 0 -126 -3 -126 -15z m220 -55 c22 -22 26 -51 10 -81 -9 -15 -22 -19 -65 -19 l-55 0 0 41 c0 22 5 49 10 60 15 26 73 26 100 -1z"/>
</g>
</svg>